# Blender v2.92.0 OBJ File: ''
# www.blender.org
mtllib lnd_gripper_link_collision_0_s.mtl
o geometry_0
v -0.000875 -0.004143 0.001144
v 0.000075 -0.004684 0.001089
v -0.000243 -0.003848 0.001017
v -0.000820 -0.009047 0.000841
v -0.000002 -0.009031 0.000860
v -0.001391 -0.003835 0.000953
v 0.000227 -0.003577 -0.000096
v -0.000097 -0.003584 -0.001583
v -0.001246 -0.003584 -0.001607
v -0.001719 -0.003584 -0.000980
v -0.001747 -0.003583 -0.000245
v -0.000415 -0.003599 0.000732
v -0.001690 -0.003935 0.000515
v 0.000096 -0.009417 0.000690
v 0.000103 -0.009728 -0.000219
v -0.001167 -0.009130 0.000380
v 0.000071 -0.009191 -0.000829
v -0.000830 -0.009470 0.000650
v -0.001370 -0.003598 0.000688
v -0.000010 -0.009760 0.000198
v 0.000020 -0.009483 -0.000683
v -0.000675 -0.009738 0.000266
v -0.000970 -0.009633 -0.000150
v -0.000672 -0.009750 -0.000262
v -0.001217 -0.009174 -0.000093
v -0.000766 -0.009359 -0.000791
v -0.001033 -0.009230 -0.000617
vn 0.1334 0.1344 0.9819
vn 0.0277 -0.0529 0.9982
vn -0.3787 -0.0613 0.9235
vn -0.0229 -0.0619 0.9978
vn -0.0442 0.4712 0.8809
vn 0.8219 -0.0443 0.5679
vn 0.0003 1.0000 -0.0045
vn -0.0024 1.0000 -0.0018
vn -0.0029 1.0000 -0.0008
vn -0.0043 0.9998 0.0177
vn 0.0002 0.9996 0.0268
vn 0.8288 0.3517 0.4351
vn -0.0290 0.7445 0.6670
vn -0.0298 0.7461 0.6652
vn 0.9925 -0.0059 0.1221
vn 0.4802 0.7842 0.3931
vn -0.0142 -0.4105 0.9117
vn 0.9997 -0.0205 0.0150
vn -0.7859 -0.0991 0.6104
vn -0.0159 -0.4079 0.9129
vn 0.9975 -0.0188 -0.0685
vn -0.7585 0.5141 0.4005
vn -0.7482 -0.2586 0.6109
vn -0.8113 -0.0965 0.5767
vn -0.7639 0.5618 0.3177
vn 0.8318 -0.5231 0.1855
vn 0.9770 0.0007 -0.2132
vn 0.0217 -0.8159 0.5778
vn 0.0305 -0.8230 0.5672
vn -0.9883 -0.1023 0.1135
vn -0.7790 -0.5731 0.2544
vn -0.6257 -0.7352 0.2606
vn 0.8891 -0.3196 -0.3277
vn -0.9948 -0.0953 -0.0372
vn -0.9951 -0.0935 0.0318
vn -0.8656 -0.4819 0.1357
vn -0.3563 -0.9342 0.0193
vn -0.0317 -0.9992 0.0224
vn 0.0318 -0.9971 -0.0687
vn 0.0510 -0.8797 -0.4728
vn 0.0509 -0.4532 -0.8899
vn -0.0468 -0.8075 -0.5880
vn 0.0199 -0.1327 -0.9910
vn -0.8642 -0.4324 -0.2572
vn -0.0162 -0.1411 -0.9899
vn -0.4687 -0.7485 -0.4691
vn -0.6134 -0.6367 -0.4673
vn -0.9394 -0.1345 -0.3153
vn -0.7904 -0.1345 -0.5977
vn -0.5932 -0.1606 -0.7889
usemtl Default_OBJ
s off
f 2//1 3//1 1//1
f 2//2 1//2 5//2
f 1//3 6//3 4//3
f 1//4 4//4 5//4
f 3//5 6//5 1//5
f 5//6 14//6 2//6
f 7//7 8//7 9//7
f 7//8 9//8 10//8
f 7//9 10//9 11//9
f 7//10 11//10 19//10
f 7//11 19//11 12//11
f 7//12 3//12 2//12
f 3//13 12//13 6//13
f 6//14 12//14 19//14
f 2//15 14//15 7//15
f 3//16 7//16 12//16
f 4//17 18//17 5//17
f 7//18 14//18 15//18
f 6//19 16//19 4//19
f 18//20 14//20 5//20
f 7//21 15//21 17//21
f 6//22 19//22 13//22
f 4//23 16//23 18//23
f 6//24 13//24 16//24
f 11//25 13//25 19//25
f 20//26 15//26 14//26
f 7//27 17//27 8//27
f 14//28 18//28 22//28
f 14//29 22//29 20//29
f 13//30 25//30 16//30
f 18//31 16//31 23//31
f 22//32 18//32 23//32
f 15//33 21//33 17//33
f 11//34 10//34 25//34
f 13//35 11//35 25//35
f 16//36 25//36 23//36
f 22//37 23//37 24//37
f 20//38 22//38 24//38
f 20//39 24//39 15//39
f 15//40 24//40 21//40
f 21//41 26//41 17//41
f 24//42 26//42 21//42
f 17//43 9//43 8//43
f 25//44 27//44 23//44
f 17//45 26//45 9//45
f 24//46 23//46 26//46
f 23//47 27//47 26//47
f 25//48 10//48 27//48
f 27//49 10//49 9//49
f 27//50 9//50 26//50
