# Blender v2.92.0 OBJ File: ''
# www.blender.org
mtllib lnd_pitch_link_collision_0_s.mtl
o lnd_pitch_link_collision_0
v 0.005004 -0.002839 -0.003057
v 0.003471 -0.001095 -0.002980
v -0.002299 -0.001102 -0.001025
v -0.002305 -0.001109 0.001023
v 0.002957 -0.001095 0.002848
v 0.005786 -0.001078 0.003096
v 0.006031 -0.001090 -0.003034
v 0.006561 -0.002710 -0.002973
v 0.004859 -0.003223 -0.002761
v 0.006543 -0.003102 -0.002818
v 0.003542 -0.002901 -0.002927
v 0.002726 -0.003247 -0.002417
v 0.007513 -0.003241 -0.002378
v 0.010202 -0.001986 -0.001223
v 0.009528 -0.001989 -0.001875
v 0.008124 -0.002043 -0.002593
v 0.002139 -0.002926 -0.002574
v 0.008470 -0.002637 -0.002470
v 0.008049 -0.002963 -0.002545
v 0.004488 -0.003235 0.002715
v 0.010574 -0.001975 -0.000569
v 0.009555 -0.002809 -0.001849
v 0.008569 -0.003093 -0.002247
v 0.007365 -0.003246 0.002474
v 0.002188 -0.003227 0.002298
v 0.001306 -0.003151 -0.002036
v 0.010654 -0.002338 -0.000218
v 0.010357 -0.002459 -0.001029
v -0.001702 -0.002199 -0.001020
v 0.010618 -0.001971 0.000352
v -0.000233 -0.002790 -0.001119
v 0.007964 -0.002059 0.002645
v 0.009476 -0.002012 0.001920
v 0.010350 -0.001982 0.001032
v 0.007649 -0.002989 0.002661
v 0.000369 -0.002974 0.001602
v 0.005455 -0.002937 0.003032
v 0.001773 -0.003006 0.002373
v -0.001684 -0.002233 0.000988
v 0.006565 -0.002697 0.002970
v 0.008163 -0.002719 0.002578
v 0.010217 -0.002534 0.001213
v 0.009371 -0.002878 0.001978
v 0.010598 -0.002330 0.000508
v 0.003153 -0.002988 0.002809
v 0.003781 -0.002764 0.002983
v 0.002389 -0.002702 0.002686
vn -0.0210 0.0257 -0.9994
vn -0.0001 1.0000 0.0035
vn -0.0027 1.0000 -0.0002
vn -0.0058 1.0000 -0.0005
vn -0.0020 1.0000 -0.0019
vn 0.0556 -0.0193 -0.9983
vn -0.0460 -0.5994 -0.7991
vn -0.0875 -0.0329 -0.9956
vn 0.0176 -0.6152 -0.7882
vn 0.0808 -0.3700 -0.9255
vn 0.1986 -0.3686 -0.9081
vn 0.0518 -0.9138 -0.4029
vn -0.0984 -0.7434 -0.6615
vn 0.2217 0.0360 -0.9745
vn 0.3420 0.8691 -0.3573
vn 0.3847 0.4800 -0.7884
vn -0.2432 -0.0382 -0.9692
vn 0.2563 -0.0504 -0.9653
vn -0.0068 -1.0000 -0.0013
vn -0.0042 -1.0000 -0.0026
vn 0.0111 -0.9999 -0.0015
vn -0.1704 -0.6673 -0.7251
vn 0.2792 0.9440 -0.1756
vn 0.4514 0.0792 -0.8888
vn 0.1841 -0.7416 -0.6451
vn 0.1853 -0.7429 -0.6433
vn 0.2572 -0.1114 -0.9599
vn -0.2234 -0.7272 -0.6491
vn 0.1882 0.9821 0.0057
vn 0.7234 -0.0437 -0.6890
vn 0.6957 0.0004 -0.7184
vn 0.8652 0.0823 -0.4946
vn 0.4952 -0.0109 -0.8687
vn -0.0043 -1.0000 0.0038
vn 0.4262 -0.2720 -0.8628
vn 0.1842 -0.9828 0.0150
vn -0.0684 -0.9977 -0.0035
vn -0.3208 0.0232 -0.9469
vn 0.1750 0.9845 -0.0123
vn 0.4217 -0.3530 -0.8352
vn 0.1387 -0.9903 0.0032
vn -0.4017 -0.2233 -0.8881
vn 0.2411 0.9642 0.1107
vn 0.9387 -0.1104 -0.3265
vn 0.2855 -0.7486 0.5984
vn -0.3746 -0.8837 -0.2806
vn 0.3728 0.4555 0.8084
vn 0.3345 0.8719 0.3577
vn 0.9844 0.1693 -0.0476
vn 0.9968 -0.0226 0.0768
vn 0.2777 -0.9607 -0.0039
vn 0.4122 -0.9110 -0.0145
vn -0.1420 -0.9898 0.0116
vn -0.4076 -0.4249 -0.8083
vn 0.0475 -0.7957 0.6038
vn 0.1101 -0.6601 0.7430
vn 0.3988 -0.9170 -0.0037
vn -0.3159 -0.7782 0.5428
vn -0.8751 -0.4839 -0.0003
vn -0.8780 -0.4786 -0.0040
vn 0.2148 0.0275 0.9763
vn 0.4306 0.0394 0.9017
vn 0.7131 -0.0393 0.7000
vn 0.6472 0.0924 0.7567
vn 0.3570 -0.4253 0.8317
vn 0.3781 -0.9258 0.0016
vn -0.1084 -0.8068 0.5808
vn -0.4142 -0.5413 0.7317
vn -0.2361 -0.9716 -0.0135
vn -0.3428 -0.9393 0.0123
vn -0.3740 -0.9273 -0.0124
vn 0.2379 -0.0257 0.9710
vn 0.9241 0.1077 0.3665
vn 0.5435 -0.8378 0.0513
vn -0.0613 -0.6268 0.7768
vn -0.2196 -0.6574 0.7209
vn -0.4080 -0.2528 0.8773
vn 0.0656 -0.0459 0.9968
vn 0.2336 -0.1518 0.9604
vn 0.4454 0.0060 0.8953
vn 0.8853 -0.0621 0.4608
vn 0.1415 -0.4239 0.8946
vn -0.0745 -0.4731 0.8779
vn -0.2776 -0.3562 0.8922
vn -0.3794 -0.1680 0.9099
vn -0.2130 -0.1523 0.9651
vn -0.3277 0.0205 0.9446
vn -0.0323 -0.0285 0.9991
vn -0.2099 -0.0245 0.9774
vn -0.0875 0.0374 0.9955
usemtl Default_OBJ.002
s off
f 1//1 2//1 7//1
f 2//2 3//2 4//2
f 2//3 4//3 5//3
f 2//4 5//4 6//4
f 2//5 6//5 7//5
f 1//6 7//6 8//6
f 1//7 9//7 11//7
f 1//8 11//8 2//8
f 1//9 10//9 9//9
f 8//10 10//10 1//10
f 10//11 8//11 19//11
f 10//12 13//12 9//12
f 11//13 9//13 12//13
f 7//14 16//14 8//14
f 7//15 14//15 15//15
f 7//16 15//16 16//16
f 11//17 17//17 2//17
f 8//18 16//18 18//18
f 9//19 13//19 24//19
f 9//20 24//20 20//20
f 9//21 20//21 12//21
f 12//22 17//22 11//22
f 7//23 21//23 14//23
f 15//24 18//24 16//24
f 19//25 23//25 13//25
f 19//26 13//26 10//26
f 8//27 18//27 19//27
f 12//28 26//28 17//28
f 7//29 6//29 21//29
f 14//30 28//30 22//30
f 14//31 22//31 15//31
f 14//32 21//32 28//32
f 15//33 22//33 18//33
f 12//34 20//34 25//34
f 23//35 19//35 22//35
f 23//36 43//36 24//36
f 12//37 25//37 26//37
f 17//38 3//38 2//38
f 6//39 30//39 21//39
f 18//40 22//40 19//40
f 23//41 24//41 13//41
f 29//42 3//42 17//42
f 6//43 34//43 30//43
f 21//44 27//44 28//44
f 24//45 43//45 35//45
f 26//46 31//46 29//46
f 6//47 32//47 33//47
f 6//48 33//48 34//48
f 30//49 27//49 21//49
f 27//50 30//50 44//50
f 22//51 43//51 23//51
f 22//52 28//52 27//52
f 25//53 36//53 26//53
f 26//54 29//54 17//54
f 24//55 37//55 20//55
f 24//56 35//56 37//56
f 22//57 27//57 42//57
f 25//58 38//58 36//58
f 29//59 39//59 4//59
f 29//60 4//60 3//60
f 6//61 40//61 32//61
f 32//62 41//62 33//62
f 34//63 33//63 43//63
f 34//64 43//64 42//64
f 43//65 41//65 35//65
f 22//66 42//66 43//66
f 20//67 45//67 25//67
f 36//68 38//68 39//68
f 26//69 36//69 31//69
f 31//70 36//70 39//70
f 31//71 39//71 29//71
f 32//72 40//72 41//72
f 34//73 44//73 30//73
f 44//74 42//74 27//74
f 20//75 37//75 45//75
f 25//76 45//76 38//76
f 39//77 38//77 4//77
f 40//78 6//78 37//78
f 41//79 40//79 35//79
f 41//80 43//80 33//80
f 34//81 42//81 44//81
f 40//82 37//82 35//82
f 45//83 37//83 46//83
f 38//84 45//84 47//84
f 38//85 47//85 4//85
f 45//86 46//86 47//86
f 4//87 47//87 5//87
f 37//88 6//88 46//88
f 47//89 46//89 5//89
f 46//90 6//90 5//90
