# Blender 3.3.15
# www.blender.org
o tool_main_insertion_link_collision_0
v -0.000496 -0.004347 0.061740
v -0.002698 -0.003750 0.061740
v 0.002096 -0.003929 0.061740
v -0.000496 -0.004347 0.407583
v -0.004000 -0.001664 0.061740
v -0.002698 -0.003750 0.407583
v 0.002119 -0.003925 0.061740
v 0.002119 -0.003925 0.407583
v -0.004000 0.001664 0.061740
v -0.004316 -0.001760 0.399376
v -0.004262 -0.001760 0.407507
v 0.003784 -0.002065 0.061740
v 0.003865 -0.002095 0.407578
v -0.002710 0.003732 0.061740
v -0.004316 0.001567 0.399376
v -0.004262 0.001567 0.407507
v 0.004635 -0.000400 0.061740
v 0.004227 -0.000417 0.407589
v -0.002698 0.003750 0.061740
v -0.002698 0.003750 0.407583
v 0.004635 0.000400 0.061740
v 0.004227 0.000383 0.407589
v 0.003865 0.002034 0.407578
v -0.002678 0.003756 0.061740
v -0.000496 0.004347 0.407583
v 0.003791 0.002050 0.061740
v 0.002119 0.003925 0.407583
v 0.003784 0.002065 0.061808
v -0.000496 0.004347 0.061740
v 0.003769 0.002081 0.061740
v 0.002119 0.003925 0.061740
vn -0.0000 -0.0000 -1.0000
vn -0.0001 -0.0000 -1.0000
vn 0.0005 -0.0000 -1.0000
vn 0.1592 -0.9872 -0.0000
vn -0.2619 -0.9651 -0.0000
vn -0.7758 -0.6310 -0.0000
vn -0.8482 -0.5296 -0.0009
vn 0.1833 -0.9830 -0.0000
vn 0.1594 -0.9872 -0.0000
vn -1.0000 -0.0000 -0.0009
vn -0.7862 -0.6180 0.0052
vn 0.7451 -0.6669 -0.0002
vn 0.7233 -0.6905 -0.0000
vn -0.8483 0.5295 -0.0006
vn -1.0000 -0.0000 0.0067
vn 0.8904 -0.4553 -0.0003
vn 0.9776 -0.2105 0.0011
vn -0.8032 0.5957 -0.0000
vn -0.8339 0.5520 -0.0000
vn -0.8128 0.5825 0.0054
vn 1.0000 -0.0000 0.0012
vn -0.2932 0.9560 -0.0000
vn -0.2619 0.9651 -0.0000
vn 0.8904 0.4552 -0.0002
vn 0.9768 0.2139 0.0012
vn 0.8848 0.4660 -0.0002
vn 0.7451 0.6669 -0.0001
vn 0.7346 0.6785 -0.0000
vn -0.2616 0.9652 -0.0000
vn 0.1594 0.9872 -0.0000
vn 0.8014 0.5970 -0.0374
vn 0.7453 0.6667 -0.0083
vn 0.0051 0.0074 1.0000
vn -0.0113 -0.0122 0.9999
vn -0.0005 -0.0032 1.0000
vn -0.0096 -0.0000 1.0000
vn 0.0049 -0.0072 1.0000
vn -0.0005 0.0033 1.0000
vn 0.0118 -0.0435 0.9990
vn -0.0116 0.0126 0.9999
vn 0.0133 0.0488 0.9987
s 0
f 1//1 2//1 5//1
f 1//1 5//1 9//1
f 1//1 9//1 14//1
f 1//2 14//2 19//2
f 1//2 19//2 24//2
f 1//1 24//1 29//1
f 1//1 29//1 31//1
f 1//1 31//1 30//1
f 1//1 30//1 26//1
f 1//1 26//1 21//1
f 1//1 21//1 17//1
f 1//1 17//1 12//1
f 1//1 12//1 7//1
f 1//3 7//3 3//3
f 1//4 3//4 4//4
f 1//5 4//5 6//5
f 1//5 6//5 2//5
f 2//6 6//6 10//6
f 2//7 10//7 5//7
f 3//8 7//8 8//8
f 3//9 8//9 4//9
f 5//10 10//10 15//10
f 5//10 15//10 9//10
f 6//11 11//11 10//11
f 7//12 12//12 13//12
f 7//13 13//13 8//13
f 9//14 15//14 14//14
f 10//15 11//15 16//15
f 10//15 16//15 15//15
f 12//16 17//16 13//16
f 13//17 17//17 18//17
f 14//18 15//18 20//18
f 14//19 20//19 19//19
f 15//20 16//20 20//20
f 17//21 21//21 22//21
f 17//21 22//21 18//21
f 19//22 20//22 24//22
f 20//23 25//23 24//23
f 21//24 26//24 23//24
f 21//25 23//25 22//25
f 23//26 26//26 28//26
f 23//27 28//27 31//27
f 23//28 31//28 27//28
f 24//29 25//29 29//29
f 25//30 27//30 31//30
f 25//30 31//30 29//30
f 26//31 30//31 28//31
f 28//32 30//32 31//32
f 23//33 25//33 22//33
f 22//34 25//34 16//34
f 27//35 25//35 23//35
f 18//36 22//36 16//36
f 13//37 18//37 4//37
f 8//38 13//38 4//38
f 20//39 16//39 25//39
f 4//40 18//40 11//40
f 6//41 4//41 11//41
f 18//36 16//36 11//36
