# Blender v2.92.0 OBJ File: ''
# www.blender.org
mtllib lnd_pitch_link_collision_1_s.mtl
o lnd_pitch_link_collision_1
v -0.000572 -0.000638 -0.003962
v -0.000224 0.000681 -0.003980
v -0.002418 -0.001080 -0.000980
v -0.002591 0.000732 0.000246
v 0.006053 -0.001123 -0.003055
v 0.006114 -0.001123 0.003024
v -0.002340 -0.001071 0.001035
v 0.006141 0.000715 0.002986
v 0.006125 0.000715 -0.003000
v -0.000533 -0.000647 0.004199
v -0.000222 0.000682 0.004202
vn -0.8398 0.2470 -0.4835
vn -0.8505 0.2173 -0.4789
vn -0.0051 -1.0000 -0.0000
vn -0.0072 -1.0000 0.0044
vn 0.0019 1.0000 -0.0000
vn -0.0479 -0.9834 -0.1752
vn 0.1320 -0.0485 -0.9901
vn -0.9919 -0.1210 0.0387
vn -0.0032 0.9999 -0.0138
vn 0.1525 0.0238 -0.9880
vn -0.0430 -0.9867 0.1570
vn -0.8404 0.1951 0.5057
vn -0.8699 0.0910 0.4848
vn 0.9999 -0.0147 -0.0028
vn 0.9992 -0.0388 -0.0101
vn -0.0025 0.9999 0.0141
vn 0.1876 0.0174 0.9821
vn 0.1710 -0.0425 0.9844
usemtl Default_OBJ.003
s off
f 1//1 3//1 4//1
f 1//2 4//2 2//2
f 3//3 5//3 6//3
f 3//4 6//4 7//4
f 4//5 8//5 9//5
f 1//6 5//6 3//6
f 1//7 2//7 5//7
f 3//8 7//8 4//8
f 4//9 9//9 2//9
f 2//10 9//10 5//10
f 7//11 6//11 10//11
f 4//12 10//12 11//12
f 7//13 10//13 4//13
f 9//14 8//14 6//14
f 9//15 6//15 5//15
f 4//16 11//16 8//16
f 6//17 8//17 11//17
f 6//18 11//18 10//18
