# Blender v2.92.0 OBJ File: ''
# www.blender.org
o lnd_roll_link_collision_1
v 0.002683 0.003059 -0.003531
v -0.002693 0.003054 -0.003531
v -0.002604 0.003333 -0.003531
v -0.001654 0.003882 -0.003531
v -0.000577 0.004194 -0.003531
v 0.002593 0.003348 -0.003531
v 0.002620 0.003290 0.000017
v 0.002632 0.003173 -0.000051
v 0.001887 0.003168 0.001202
v 0.000867 0.003170 0.001823
v -0.000291 0.003173 0.001957
v 0.002061 0.003703 0.001023
v -0.001158 0.003168 0.001694
v -0.001920 0.003170 0.001175
v -0.002631 0.003173 -0.000049
v -0.002610 0.003298 0.000074
v 0.000444 0.004200 0.001916
v 0.001164 0.004051 0.001703
v -0.000595 0.004189 0.001906
v -0.002147 0.003641 0.000917
v -0.001433 0.003963 0.001553
v 0.001097 0.004109 -0.003531
vn 0.0000 0.0001 -1.0000
vn -0.0000 -0.0000 -1.0000
vn -0.0000 -0.0001 -1.0000
vn 0.0001 0.0002 -1.0000
vn 0.9546 0.2977 -0.0022
vn 0.9953 0.0963 0.0116
vn 0.0628 -0.9975 0.0336
vn 0.0134 -0.9996 0.0253
vn 0.0004 -0.9998 0.0209
vn 0.0008 -0.9998 0.0212
vn -0.0011 -0.9998 0.0220
vn 0.6040 0.7969 0.0086
vn -0.0223 -0.9994 0.0282
vn -0.0644 -0.9973 0.0351
vn 0.8506 -0.1039 0.5155
vn 0.8419 -0.2033 0.4999
vn -0.9528 0.3037 0.0013
vn -0.9889 0.1479 0.0126
vn 0.6186 0.0616 0.7833
vn 0.5190 -0.0593 0.8527
vn 0.1150 -0.0429 0.9924
vn -0.0106 0.0473 0.9988
vn 0.2900 0.0322 0.9565
vn 0.4532 0.8913 -0.0164
vn -0.8164 -0.3309 0.4733
vn -0.5619 -0.0483 0.8258
vn -0.6027 0.7979 0.0067
vn -0.8471 -0.1252 0.5165
vn -0.6808 0.0710 0.7290
vn -0.2906 -0.0386 0.9561
vn 0.3656 0.9308 0.0056
vn 0.2051 0.9787 0.0082
vn -0.3940 0.0261 0.9187
vn -0.0103 0.9999 0.0009
vn -0.5003 0.8658 -0.0085
vn -0.4137 0.9104 0.0035
vn -0.2589 0.9659 -0.0042
vn 0.0509 0.9986 -0.0106
vn -0.2784 0.9605 -0.0001
s off
f 1//1 2//1 3//1
f 1//2 3//2 4//2
f 1//2 4//2 5//2
f 1//3 5//3 22//3
f 1//4 22//4 6//4
f 1//5 6//5 7//5
f 1//6 7//6 8//6
f 1//7 8//7 9//7
f 1//8 9//8 10//8
f 1//9 10//9 11//9
f 1//10 11//10 2//10
f 2//11 11//11 13//11
f 6//12 12//12 7//12
f 2//13 13//13 14//13
f 2//14 14//14 15//14
f 7//15 12//15 9//15
f 7//16 9//16 8//16
f 2//17 16//17 3//17
f 2//18 15//18 16//18
f 9//19 12//19 18//19
f 9//20 18//20 10//20
f 10//21 17//21 11//21
f 17//22 19//22 11//22
f 10//23 18//23 17//23
f 12//24 6//24 22//24
f 14//25 16//25 15//25
f 14//26 13//26 21//26
f 20//27 3//27 16//27
f 14//28 20//28 16//28
f 14//29 21//29 20//29
f 11//30 19//30 13//30
f 22//31 18//31 12//31
f 17//32 18//32 22//32
f 13//33 19//33 21//33
f 17//34 5//34 19//34
f 3//35 20//35 4//35
f 21//36 4//36 20//36
f 19//37 4//37 21//37
f 17//38 22//38 5//38
f 19//39 5//39 4//39
