# Blender v2.92.0 OBJ File: ''
# www.blender.org
mtllib lnd_gripper_link_collision_1_s.mtl
o lnd_gripper_link_collision_1
v -0.002558 -0.000169 -0.001172
v -0.002474 0.000161 -0.001373
v -0.002302 0.000229 -0.000021
v -0.001616 -0.002956 -0.001797
v -0.001818 -0.003584 -0.000352
v -0.002380 0.000939 -0.001219
v -0.001319 -0.002757 -0.002084
v -0.001347 -0.003583 -0.001579
v -0.000238 -0.003590 -0.001612
v -0.000333 -0.003608 0.000651
v -0.001268 -0.003584 0.000657
v -0.002089 0.000221 -0.001674
v -0.001969 0.001164 0.000006
v -0.001975 0.001595 -0.001299
v -0.001331 0.001885 0.000010
v -0.001443 0.000274 -0.002031
v -0.000310 0.002247 0.000038
v -0.001742 0.001875 -0.001236
v -0.001873 0.001025 -0.001655
v -0.001226 -0.003076 -0.001969
v 0.001488 0.001711 0.000033
v 0.000383 0.002258 -0.000004
v -0.001394 0.002043 -0.001376
v -0.001212 0.002254 -0.001089
v -0.000842 0.000944 -0.002114
v -0.000285 -0.003079 -0.001974
v -0.000314 -0.002662 -0.002113
v 0.002278 -0.000020 0.000012
v 0.002095 0.000961 0.000005
v 0.001061 0.002036 -0.000002
v 0.000665 0.000985 -0.002117
v 0.000918 -0.002185 -0.002098
v -0.000438 0.002517 -0.001251
v 0.001094 -0.003226 -0.000114
v 0.002185 -0.000723 -0.000020
v 0.000506 0.002512 -0.001191
v -0.001106 0.001503 -0.001826
v 0.001058 -0.003456 -0.000426
v 0.001725 0.001894 -0.001155
v 0.000143 0.002462 -0.001371
v 0.001205 0.000272 -0.002112
v 0.001020 -0.002748 -0.001792
v 0.002540 0.000301 -0.001080
v 0.002285 0.001162 -0.001193
v 0.000117 0.001446 -0.002038
v 0.002446 -0.000756 -0.001177
v 0.001045 0.002331 -0.001267
v 0.001062 -0.003301 -0.001147
v 0.002434 -0.000545 -0.001353
v 0.002458 0.000293 -0.001354
v -0.000541 0.001944 -0.001744
v 0.001868 -0.000164 -0.001831
v 0.002220 0.001040 -0.001391
v 0.001650 0.001806 -0.001401
v 0.000472 0.002058 -0.001666
v 0.001819 0.000490 -0.001819
v 0.000958 0.001637 -0.001816
v 0.001596 0.000966 -0.001838
vn -0.9736 0.1631 0.1597
vn -0.9754 0.1498 -0.1617
vn -0.6635 -0.0815 -0.7437
vn -0.8068 -0.1442 -0.5729
vn -0.9544 -0.1440 0.2616
vn -0.0064 -1.0000 -0.0033
vn -0.0105 -0.9999 -0.0085
vn -0.0257 -0.9996 0.0139
vn -0.8681 -0.1513 0.4728
vn -0.6100 -0.0489 -0.7909
vn -0.3118 0.0837 0.9464
vn -0.9341 -0.2610 -0.2436
vn -0.9147 0.3189 0.2483
vn -0.6577 0.2222 -0.7197
vn -0.0683 0.1163 0.9909
vn -0.1364 0.1147 0.9840
vn -0.6228 0.1847 -0.7603
vn -0.4843 -0.0048 -0.8749
vn -0.4701 -0.4178 -0.7775
vn -0.8266 -0.4648 -0.3172
vn 0.0085 0.1041 0.9945
vn -0.7754 0.5985 0.2015
vn -0.8273 0.5321 0.1798
vn -0.6494 0.3157 -0.6918
vn -0.4719 -0.4634 -0.7501
vn -0.7283 0.6434 0.2358
vn 0.0336 0.1039 0.9940
vn -0.5049 0.8166 -0.2797
vn -0.4885 0.1509 -0.8594
vn -0.1480 0.0110 -0.9889
vn 0.0020 -0.3157 -0.9488
vn -0.0067 -0.3408 -0.9401
vn 0.1319 0.0697 0.9888
vn -0.5280 0.5784 -0.6219
vn 0.1834 0.0414 0.9822
vn 0.0563 0.1803 0.9820
vn 0.0567 0.1829 0.9815
vn -0.6050 0.7723 0.1940
vn -0.3693 0.8452 -0.3864
vn -0.0017 -0.0080 -1.0000
vn -0.0011 -0.0083 -1.0000
vn -0.0052 -0.0049 -1.0000
vn -0.0417 0.1380 -0.9896
vn -0.0279 -0.5801 -0.8141
vn -0.0068 -0.6085 -0.7935
vn 0.3507 -0.0893 0.9322
vn -0.0073 0.9781 0.2082
vn -0.0026 0.9787 0.2052
vn -0.3289 0.9054 0.2685
vn -0.2721 0.9360 0.2232
vn -0.4345 0.4276 -0.7927
vn -0.4375 0.4183 -0.7960
vn 0.4612 -0.7387 0.4916
vn 0.5088 -0.2527 0.8229
vn -0.2328 0.6574 -0.7166
vn -0.3804 0.2310 -0.8955
vn 0.7586 0.6042 0.2439
vn 0.5754 0.7833 0.2350
vn 0.0257 0.9498 -0.3119
vn 0.1297 -0.3051 -0.9434
vn 0.9736 -0.1049 0.2027
vn 0.7799 0.5853 0.2219
vn 0.5081 0.8402 0.1893
vn 0.3041 0.9286 0.2125
vn 0.3394 0.9121 0.2301
vn -0.3718 0.2810 -0.8848
vn 0.2311 -0.4316 -0.8720
vn 0.2499 -0.5448 -0.8005
vn 0.8978 -0.3982 0.1883
vn 0.8917 -0.3994 0.2132
vn 0.9651 -0.1384 0.2222
vn 0.9437 0.1783 0.2788
vn 0.1830 0.7902 -0.5849
vn -0.2876 0.5172 -0.8061
vn -0.0063 0.1616 -0.9868
vn 0.3745 -0.6917 -0.6175
vn 0.8738 -0.4765 -0.0973
vn 0.9849 -0.0728 -0.1573
vn 0.9583 -0.0284 -0.2843
vn 0.9323 0.3024 0.1986
vn -0.0919 0.6584 -0.7470
vn 0.3632 -0.0476 -0.9305
vn 0.7632 -0.3865 -0.5179
vn 0.7928 -0.4363 -0.4255
vn 0.1057 -0.9944 -0.0035
vn 0.2805 -0.9386 -0.2008
vn 0.9290 0.2380 -0.2834
vn 0.7100 0.5650 -0.4203
vn 0.5374 0.7277 -0.4262
vn 0.6443 -0.2709 -0.7152
vn -0.1244 0.3769 -0.9178
vn 0.6817 0.5004 -0.5337
vn 0.1811 0.6717 -0.7184
vn -0.0040 0.5873 -0.8093
vn 0.5706 -0.1617 -0.8052
vn 0.6121 0.1574 -0.7750
vn 0.8614 0.2535 -0.4402
vn 0.2634 0.5777 -0.7726
vn 0.4160 0.0469 -0.9082
vn 0.6370 -0.0198 -0.7706
vn 0.5989 0.0587 -0.7986
vn 0.5112 0.3702 -0.7756
vn 0.3960 0.4033 -0.8249
vn 0.3197 0.5626 -0.7624
vn -0.1713 0.3867 -0.9061
vn 0.0078 0.5154 -0.8569
vn 0.1635 0.3522 -0.9215
vn 0.2849 0.2092 -0.9355
vn 0.5490 0.2263 -0.8046
vn 0.1280 0.4592 -0.8791
vn 0.3834 0.1445 -0.9122
vn 0.2799 0.2959 -0.9133
usemtl Default_OBJ.001
s off
f 3//1 6//1 1//1
f 2//2 1//2 6//2
f 2//3 7//3 4//3
f 1//4 2//4 4//4
f 3//5 1//5 5//5
f 5//6 8//6 9//6
f 5//7 9//7 10//7
f 5//8 10//8 11//8
f 3//9 5//9 11//9
f 7//10 2//10 12//10
f 3//11 11//11 13//11
f 1//12 4//12 5//12
f 3//13 13//13 6//13
f 6//14 19//14 2//14
f 11//15 17//15 15//15
f 11//16 15//16 13//16
f 2//17 19//17 12//17
f 7//18 12//18 16//18
f 7//19 20//19 4//19
f 5//20 4//20 8//20
f 11//21 10//21 17//21
f 13//22 18//22 14//22
f 13//23 14//23 6//23
f 14//24 19//24 6//24
f 20//25 8//25 4//25
f 13//26 15//26 18//26
f 10//27 21//27 17//27
f 18//28 24//28 23//28
f 12//29 19//29 16//29
f 7//30 16//30 25//30
f 7//31 27//31 26//31
f 7//32 26//32 20//32
f 10//33 29//33 21//33
f 18//34 23//34 14//34
f 10//35 28//35 29//35
f 21//36 30//36 17//36
f 17//37 30//37 22//37
f 15//38 24//38 18//38
f 23//39 24//39 33//39
f 7//40 25//40 31//40
f 7//41 31//41 41//41
f 7//42 41//42 32//42
f 7//43 32//43 27//43
f 26//44 9//44 8//44
f 26//45 8//45 20//45
f 28//46 10//46 35//46
f 22//47 36//47 33//47
f 22//48 33//48 17//48
f 15//49 17//49 24//49
f 17//50 33//50 24//50
f 14//51 23//51 37//51
f 14//52 37//52 19//52
f 10//53 38//53 34//53
f 10//54 34//54 35//54
f 23//55 33//55 51//55
f 16//56 19//56 25//56
f 29//57 39//57 21//57
f 30//58 21//58 39//58
f 36//59 40//59 33//59
f 27//60 32//60 26//60
f 28//61 46//61 43//61
f 29//62 44//62 39//62
f 30//63 39//63 47//63
f 30//64 47//64 22//64
f 36//65 22//65 47//65
f 19//66 37//66 25//66
f 26//67 32//67 42//67
f 42//68 9//68 26//68
f 34//69 38//69 35//69
f 35//70 38//70 46//70
f 35//71 46//71 28//71
f 28//72 43//72 29//72
f 40//73 36//73 47//73
f 23//74 51//74 37//74
f 25//75 45//75 31//75
f 42//76 48//76 9//76
f 38//77 48//77 46//77
f 46//78 49//78 43//78
f 43//79 49//79 50//79
f 43//80 44//80 29//80
f 40//81 51//81 33//81
f 32//82 41//82 52//82
f 42//83 49//83 46//83
f 42//84 46//84 48//84
f 10//85 9//85 38//85
f 38//86 9//86 48//86
f 43//87 50//87 44//87
f 44//88 54//88 39//88
f 39//89 54//89 47//89
f 32//90 49//90 42//90
f 25//91 51//91 45//91
f 53//92 54//92 44//92
f 47//93 55//93 40//93
f 40//94 55//94 51//94
f 32//95 52//95 49//95
f 50//96 56//96 53//96
f 50//97 53//97 44//97
f 47//98 57//98 55//98
f 52//99 41//99 56//99
f 49//100 52//100 50//100
f 50//101 52//101 56//101
f 53//102 58//102 54//102
f 54//103 58//103 57//103
f 54//104 57//104 47//104
f 37//105 51//105 25//105
f 51//106 55//106 45//106
f 45//107 57//107 31//107
f 31//108 58//108 41//108
f 56//109 58//109 53//109
f 55//110 57//110 45//110
f 41//111 58//111 56//111
f 31//112 57//112 58//112
